<?xml version="1.0" encoding="UTF-8" standalone="no"?><!DOCTYPE svg PUBLIC "-//W3C//DTD SVG 1.1//EN" "http://www.w3.org/Graphics/SVG/1.1/DTD/svg11.dtd"><svg width="100%" height="100%" viewBox="0 0 959 924" version="1.1" xmlns="http://www.w3.org/2000/svg" xmlns:xlink="http://www.w3.org/1999/xlink" xml:space="preserve" xmlns:serif="http://www.serif.com/" style="fill-rule:evenodd;clip-rule:evenodd;stroke-linejoin:round;stroke-miterlimit:2;"><path d="M396.936,672.202c-78.885,13.938 -163.533,16.774 -199.352,13.036c-55.749,-5.819 -102.295,-18.217 -138.729,-54.651c-39.237,-39.237 -58.855,-82.677 -58.855,-130.321c-0,-42.04 15.414,-81.276 46.243,-117.71c33.631,-36.434 84.078,-61.657 151.341,-75.67c-0,-11.211 -1.401,-23.823 -4.204,-37.836c-0,-81.275 19.618,-144.334 58.855,-189.176c44.841,-53.249 102.295,-79.874 172.36,-79.874c67.263,0 123.315,22.421 168.157,67.263c53.249,47.644 84.078,113.505 92.486,197.583c42.039,-47.644 86.881,-74.269 134.525,-79.874c42.039,-2.802 77.072,8.408 105.098,33.631c25.223,25.224 36.434,60.257 33.631,105.098c-2.803,47.645 -29.427,91.085 -79.874,130.322c56.052,39.236 82.677,82.676 79.874,130.321c-0,44.842 -22.421,84.078 -67.263,117.709c-39.236,30.829 -86.88,46.243 -142.933,46.243c-51.288,2.23 -97.253,-7.072 -137.896,-27.908c-0.02,55.596 6.301,110.555 17.369,165.038c2.83,13.666 -3.582,27.58 -15.81,34.306c-12.228,6.727 -27.413,4.692 -37.439,-5.015c-84.412,-80.824 -140.721,-161.672 -177.584,-242.515Zm-144.286,-254.078c-32.223,0 -58.383,30.371 -58.383,67.78c-0,37.409 26.16,67.78 58.383,67.78c32.222,-0 58.383,-30.371 58.383,-67.78c-0,-37.409 -26.161,-67.78 -58.383,-67.78Zm226.806,-24.069c-32.222,0 -58.383,30.371 -58.383,67.78c0,37.408 26.161,67.779 58.383,67.779c32.223,0 58.383,-30.371 58.383,-67.779c0,-37.409 -26.16,-67.78 -58.383,-67.78Zm226.807,-24.069c-32.223,0 -58.383,30.371 -58.383,67.78c-0,37.408 26.16,67.779 58.383,67.779c32.222,0 58.382,-30.371 58.382,-67.779c0,-37.409 -26.16,-67.78 -58.382,-67.78Z" style="fill:#fff;"/></svg>