<?xml version="1.0" encoding="UTF-8" standalone="no"?><!DOCTYPE svg PUBLIC "-//W3C//DTD SVG 1.1//EN" "http://www.w3.org/Graphics/SVG/1.1/DTD/svg11.dtd"><svg width="100%" height="100%" viewBox="0 0 1642 384" version="1.1" xmlns="http://www.w3.org/2000/svg" xmlns:xlink="http://www.w3.org/1999/xlink" xml:space="preserve" xmlns:serif="http://www.serif.com/" style="fill-rule:evenodd;clip-rule:evenodd;stroke-linejoin:round;stroke-miterlimit:2;"><g><path d="M597.882,308.032c27.549,-0 49.815,-20.756 53.211,-64.155l-36.229,-1.887c-2.264,24.53 -6.415,33.964 -16.982,33.964c-13.963,0 -19.624,-16.227 -20.379,-55.853l75.477,0l0,-13.585c0,-59.627 -20.756,-90.95 -55.098,-90.95c-36.229,0 -59.249,34.719 -59.249,96.233c-0,61.891 23.397,96.233 59.249,96.233Zm-20.379,-112.461c1.132,-35.474 6.793,-49.814 20.379,-49.814c10.944,-0 18.869,9.812 19.247,49.814l-39.626,0Z" style="fill:#fff;fill-rule:nonzero;"/><path d="M748.836,306.145l25.662,-0l-0,-150.954c-0,-30.945 -19.624,-39.625 -43.777,-39.625c-15.473,0 -35.474,3.396 -53.588,10.189l6.793,29.814c13.963,-6.793 26.794,-9.812 37.738,-9.812c11.321,-0 15.095,4.528 15.095,19.624l0,23.02c-52.079,6.793 -69.438,36.606 -69.438,67.552c-0,33.21 19.246,52.079 41.512,52.079c15.85,-0 28.304,-9.435 35.097,-24.53l4.906,22.643Zm-46.041,-55.853c-0,-14.34 5.283,-35.474 33.964,-42.644l0,41.889c0,16.228 -8.302,26.417 -17.737,26.417c-9.812,0 -16.227,-10.189 -16.227,-25.662Z" style="fill:#fff;fill-rule:nonzero;"/><path d="M840.163,308.032c33.964,-0 52.456,-23.021 52.456,-49.06c-0,-14.341 -5.661,-27.172 -16.982,-40.003l-29.059,-34.719c-6.038,-6.793 -12.831,-14.718 -12.831,-23.398c0,-7.925 6.038,-14.34 14.341,-14.34c8.302,-0 18.491,7.17 23.397,23.775l23.398,-27.549c-10.944,-18.115 -30.19,-27.172 -49.06,-27.172c-25.284,0 -49.06,15.095 -49.06,45.286c0,13.963 5.284,29.436 17.36,43.022l24.53,27.926c8.68,10.19 16.605,20.756 16.605,29.436c-0,8.303 -7.17,14.718 -16.982,14.718c-13.209,0 -21.134,-11.321 -26.04,-21.888l-21.888,24.907c9.812,19.624 28.304,29.059 49.815,29.059Z" style="fill:#fff;fill-rule:nonzero;"/><path d="M929.98,381.622l36.229,-0l57.74,-264.169l-39.626,-0l-22.265,150.576l-21.511,-150.576l-39.626,-0l40.758,188.692l10.567,-0l-22.266,75.477Z" style="fill:#fff;fill-rule:nonzero;"/><path d="M1107.73,309.919c33.964,-0 60.759,-23.775 68.306,-95.101l-43.021,-3.774c-3.397,49.438 -13.209,61.136 -25.285,61.136c-15.85,0 -30.191,-19.624 -30.191,-98.119c0,-78.496 14.341,-98.12 30.191,-98.12c12.076,-0 20.756,11.321 24.907,54.72l41.512,-9.434c-9.057,-61.891 -36.228,-83.025 -66.419,-83.025c-40.003,0 -71.703,32.833 -71.703,135.859c-0,103.403 31.7,135.858 71.703,135.858Z" style="fill:#fff;fill-rule:nonzero;"/><path d="M1197.92,306.145l37.738,-0l0,-303.794l-37.738,11.699l-0,292.095Z" style="fill:#fff;fill-rule:nonzero;"/><path d="M1316.04,308.032c36.606,-0 57.74,-32.078 57.74,-96.233c-0,-63.401 -21.134,-96.233 -57.74,-96.233c-36.984,0 -57.74,32.455 -57.74,96.233c0,63.778 20.756,96.233 57.74,96.233Zm-0,-30.191c-13.586,0 -18.869,-17.737 -18.869,-66.042c-0,-48.305 5.283,-66.042 18.869,-66.042c13.586,-0 18.869,18.114 18.869,66.419c0,48.306 -5.283,65.665 -18.869,65.665Z" style="fill:#fff;fill-rule:nonzero;"/><path d="M1432.66,308.032c17.737,-0 29.813,-9.435 40.38,-32.455l6.793,30.568l25.284,-0l0,-188.692l-37.738,-0l-0,130.952c-5.283,17.737 -15.473,29.436 -24.53,29.436c-6.793,0 -9.435,-6.038 -9.435,-19.624l0,-140.764l-37.738,-0l-0,146.802c-0,26.795 12.831,43.777 36.984,43.777Z" style="fill:#fff;fill-rule:nonzero;"/><path d="M1615.69,306.145l25.662,-0l-0,-303.794l-37.738,11.321l-0,121.518c-7.926,-12.454 -19.247,-19.624 -31.323,-19.624c-30.191,0 -45.286,42.644 -45.286,102.271c-0.378,64.91 16.982,90.195 46.04,90.195c18.87,-0 30.569,-10.189 36.229,-30.568l6.416,28.681Zm-49.815,-90.195c0,-49.815 6.416,-70.193 17.737,-70.193c9.435,-0 20.002,14.718 20.002,39.248l-0,43.776c-0,32.455 -5.661,49.06 -19.247,49.06c-11.322,0 -18.492,-11.321 -18.492,-61.891Z" style="fill:#fff;fill-rule:nonzero;"/><path d="M165.007,279.437c-32.792,5.794 -67.981,6.973 -82.871,5.419c-23.175,-2.419 -42.524,-7.573 -57.67,-22.719c-16.311,-16.311 -24.466,-34.369 -24.466,-54.175c-0,-17.476 6.408,-33.786 19.223,-48.932c13.981,-15.146 34.952,-25.631 62.913,-31.457c0,-4.66 -0.582,-9.903 -1.747,-15.728c-0,-33.786 8.155,-60 24.466,-78.641c18.641,-22.136 42.524,-33.204 71.651,-33.204c27.961,0 51.262,9.32 69.903,27.961c22.136,19.806 34.951,47.185 38.447,82.137c17.475,-19.806 36.116,-30.874 55.922,-33.204c17.476,-1.166 32.039,3.495 43.69,13.98c10.485,10.486 15.145,25.049 13.98,43.69c-1.165,19.806 -12.233,37.864 -33.204,54.175c23.301,16.31 34.369,34.369 33.204,54.175c0,18.641 -9.32,34.951 -27.961,48.932c-16.311,12.816 -36.117,19.223 -59.418,19.223c-21.32,0.927 -40.428,-2.94 -57.324,-11.601c-0.008,23.111 2.62,45.958 7.221,68.607c1.176,5.681 -1.489,11.465 -6.573,14.261c-5.083,2.796 -11.395,1.95 -15.563,-2.085c-35.09,-33.599 -58.498,-67.207 -73.823,-100.814Zm128.589,-125.633c-13.395,0 -24.27,12.626 -24.27,28.177c-0,15.551 10.875,28.176 24.27,28.176c13.395,-0 24.27,-12.625 24.27,-28.176c-0,-15.551 -10.875,-28.177 -24.27,-28.177Zm-94.284,10.006c-13.395,0 -24.27,12.625 -24.27,28.176c-0,15.551 10.875,28.176 24.27,28.176c13.395,0 24.27,-12.625 24.27,-28.176c-0,-15.551 -10.875,-28.176 -24.27,-28.176Zm-94.285,10.006c-13.395,-0 -24.27,12.625 -24.27,28.176c0,15.551 10.875,28.176 24.27,28.176c13.395,0 24.27,-12.625 24.27,-28.176c0,-15.551 -10.875,-28.176 -24.27,-28.176Z" style="fill:#fff;"/></g></svg>